<?xml version="1.0" encoding="UTF-8"?>
<svg width="30px" height="24px" viewBox="0 0 30 24" version="1.1" xmlns="http://www.w3.org/2000/svg" xmlns:xlink="http://www.w3.org/1999/xlink">
    <!-- Generator: Sketch 55.2 (78181) - https://sketchapp.com -->
    <title>shuffle</title>
    <desc>Created with Sketch.</desc>
    <g id="Page-1" stroke="none" stroke-width="1" fill="none" fill-rule="evenodd">
        <g id="Artboard" transform="translate(-253.000000, -249.000000)" fill="#FFFFFF" fill-rule="nonzero">
            <g id="shuffle" transform="translate(252.000000, 246.000000)">
                <g id="Group" transform="translate(1.000000, 3.000000)">
                    <g transform="translate(0.000000, 2.366197)" id="Path">
                        <polygon points="12.8125829 8.56090141 12.8250481 8.54602817 13.0241551 8.26715493 13.6760535 7.49002817 7.64119251 0.29543662 0.168449198 0.29543662 0.168449198 1.6475493 7.0138877 1.6475493"></polygon>
                        <polygon points="14.4980856 8.60957746 14.5664759 8.55177465 14.5567059 8.53994366"></polygon>
                    </g>
                    <polygon id="Path" points="27.1348075 0.0824788732 26.0759358 0.919098592 27.4444171 2.6616338 21.5126471 2.6616338 14.151754 11.4375211 13.9526471 11.7163944 7.0138877 19.9886197 0.168449198 19.9886197 0.168449198 21.3407324 7.64119251 21.3407324 15.0020856 12.5648451 15.2011925 12.2859718 22.1399519 4.01374648 27.3942193 4.01374648 27.3935455 4.02422535 26.068861 5.77487324 27.1418824 6.59256338 29.6470588 3.28157746"></polygon>
                    <g transform="translate(14.149733, 12.845070)" id="Path">
                        <polygon points="0.450433155 0.254535211 0.518823529 0.173408451 0.43897861 0.240676056"></polygon>
                        <polygon points="12.9850749 4.56439437 11.9262032 5.40135211 13.2946845 7.1435493 7.99021925 7.1435493 2.19455615 0.233915493 1.83272727 0.664901408 1.63395722 0.943774648 1.33108556 1.3044507 7.36291444 8.49566197 13.2444866 8.49566197 13.2438128 8.50647887 11.9191283 10.2571268 12.9921497 11.0748169 15.4973262 7.76383099"></polygon>
                    </g>
                </g>
            </g>
        </g>
    </g>
</svg>